<?xml version="1.0" encoding="UTF-8"?>
<svg width="119px" height="20px" viewBox="0 0 119 20" version="1.1" xmlns="http://www.w3.org/2000/svg" xmlns:xlink="http://www.w3.org/1999/xlink">
    <!-- Generator: Sketch 43.2 (39069) - http://www.bohemiancoding.com/sketch -->
    <title>Bubbles 4-119 x 20</title>
    <desc>Created with Sketch.</desc>
    <defs>
        <polygon id="path-1" points="13.4837535 0.0645217391 26.967507 0.0645217391 26.967507 15.9999457 0 15.9999457 0 0.0645217391 13.4837535 0.0645217391"></polygon>
    </defs>
    <g id="Page-1" stroke="none" stroke-width="1" fill="none" fill-rule="evenodd">
        <g id="Bubbles-4-119-x-20">
            <g id="Bubbles-4.5" transform="translate(35.000000, 2.000000)">
                <g id="4.5-Bubbles-Copy">
                    <g id="Bubble_Zero" transform="translate(64.000000, 0.000000)">
                        <g id="Bubble_Half">
                            <ellipse id="outer" fill="#00AF87" cx="7.936" cy="8" rx="7.936" ry="8"></ellipse>
                            <ellipse id="white" fill="#FFFFFF" cx="7.936" cy="8" rx="6.3488" ry="6.4"></ellipse>
                        </g>
                    </g>
                    <g id="Bubble_Full">
                        <g>
                            <ellipse id="outer" fill="#00AF87" cx="7.936" cy="8" rx="7.936" ry="8"></ellipse>
                            <ellipse id="white" fill="#FFFFFF" cx="7.936" cy="8" rx="6.3488" ry="6.4"></ellipse>
                            <path d="M7.936,12 C10.1274659,12 11.904,10.209139 11.904,8 C11.904,5.790861 10.1274659,4 7.936,4 C5.74453411,4 3.968,5.790861 3.968,8 C3.968,10.209139 5.74453411,12 7.936,12 Z" id="inner" fill="#00AF87"></path>
                        </g>
                    </g>
                    <g id="Bubble_Full" transform="translate(16.000000, 0.000000)">
                        <g>
                            <ellipse id="outer" fill="#00AF87" cx="7.936" cy="8" rx="7.936" ry="8"></ellipse>
                            <ellipse id="white" fill="#FFFFFF" cx="7.936" cy="8" rx="6.3488" ry="6.4"></ellipse>
                            <path d="M7.936,12 C10.1274659,12 11.904,10.209139 11.904,8 C11.904,5.790861 10.1274659,4 7.936,4 C5.74453411,4 3.968,5.790861 3.968,8 C3.968,10.209139 5.74453411,12 7.936,12 Z" id="inner" fill="#00AF87"></path>
                        </g>
                    </g>
                    <g id="Bubble_Full" transform="translate(32.000000, 0.000000)">
                        <g>
                            <ellipse id="outer" fill="#00AF87" cx="7.936" cy="8" rx="7.936" ry="8"></ellipse>
                            <ellipse id="white" fill="#FFFFFF" cx="7.936" cy="8" rx="6.3488" ry="6.4"></ellipse>
                            <path d="M7.936,12 C10.1274659,12 11.904,10.209139 11.904,8 C11.904,5.790861 10.1274659,4 7.936,4 C5.74453411,4 3.968,5.790861 3.968,8 C3.968,10.209139 5.74453411,12 7.936,12 Z" id="inner" fill="#00AF87"></path>
                        </g>
                    </g>
                    <g id="Bubble_Full" transform="translate(48.000000, 0.000000)">
                        <g>
                            <ellipse id="outer" fill="#00AF87" cx="7.936" cy="8" rx="7.936" ry="8"></ellipse>
                            <ellipse id="white" fill="#FFFFFF" cx="7.936" cy="8" rx="6.3488" ry="6.4"></ellipse>
                            <path d="M7.936,12 C10.1274659,12 11.904,10.209139 11.904,8 C11.904,5.790861 10.1274659,4 7.936,4 C5.74453411,4 3.968,5.790861 3.968,8 C3.968,10.209139 5.74453411,12 7.936,12 Z" id="inner" fill="#00AF87"></path>
                        </g>
                    </g>
                </g>
            </g>
            <g id="Ollie_wht-bkg" transform="translate(2.000000, 2.000000)">
                <path d="M17.8746768,2.94556522 C18.5751315,2.68730435 19.2911092,2.55895652 19.9992383,2.53773913 C18.0668832,1.67530435 15.8790087,1.23843478 13.4556725,1.23843478 C11.0475106,1.23843478 8.82597375,1.68747826 6.89257219,2.51078261 C10.3876948,2.58086957 13.234513,5.308 13.4848,8.74782609 C13.5458456,7.96191304 13.7387497,7.18278261 14.0795586,6.44556522 C14.8344311,4.81147826 16.1819693,3.56869565 17.8746768,2.94556522" id="Fill-1" fill="#F0BF26"></path>
                <path d="M20.1999911,10.2982609 C19.5785468,10.2982609 19.0786705,9.79495652 19.0786705,9.17843478 C19.0786705,8.55947826 19.5785468,8.05947826 20.1999911,8.05947826 C20.819168,8.05947826 21.320614,8.55947826 21.320614,9.17843478 C21.320614,9.79495652 20.819168,10.2982609 20.1999911,10.2982609 M20.1999911,6.9986087 C18.9935555,6.9986087 18.0128142,7.97634783 18.0128142,9.17843478 C18.0128142,10.38 18.9935555,11.3589565 20.1999911,11.3589565 C21.4045081,11.3589565 22.3847261,10.38 22.3847261,9.17843478 C22.3847261,7.97634783 21.4045081,6.9986087 20.1999911,6.9986087" id="Fill-2" fill="#FFFFFF"></path>
                <path d="M20.1999911,12.5041739 C18.3609486,12.5041739 16.8644592,11.0118261 16.8644592,9.17843478 C16.8644592,7.34556522 18.3609486,5.85443478 20.1999911,5.85443478 C22.0376383,5.85443478 23.532558,7.34556522 23.532558,9.17843478 C23.532558,11.0118261 22.0376383,12.5041739 20.1999911,12.5041739 M18.3466465,4.22156522 C16.99562,4.71808696 15.9205197,5.71043478 15.3179123,7.01426087 C14.7165259,8.31791304 14.6598407,9.77704348 15.1590194,11.124 L15.1590194,11.1250435 C15.6566283,12.4697391 16.6499275,13.541913 17.9571755,14.1426087 C19.2659933,14.7446957 20.730739,14.802087 22.0810679,14.3057391 C24.8684102,13.2766957 26.2993192,10.1796522 25.2697415,7.40104348 C24.2408614,4.62191304 21.134861,3.19513043 18.3466465,4.22156522" id="Fill-3" fill="#FFFFFF"></path>
                <path d="M6.67001735,10.2982609 C6.0487475,10.2982609 5.54730145,9.79495652 5.54730145,9.17843478 C5.54730145,8.55947826 6.0487475,8.05947826 6.67001735,8.05947826 C7.28832214,8.05947826 7.79151235,8.55947826 7.79151235,9.17843478 C7.79151235,9.79495652 7.28832214,10.2982609 6.67001735,10.2982609 M6.67350567,6.9986087 C5.466198,6.9986087 4.48388699,7.97634783 4.48388699,9.17843478 C4.48388699,10.38 5.466198,11.3589565 6.67350567,11.3589565 C7.87645295,11.3589565 8.85545006,10.38 8.85545006,9.17843478 C8.85545006,7.97634783 7.87645295,6.9986087 6.67350567,6.9986087" id="Fill-4" fill="#FFFFFF"></path>
                <path d="M6.67350567,12.5041739 C4.83289344,12.5041739 3.33588076,11.0118261 3.33588076,9.17843478 C3.33588076,7.34556522 4.83289344,5.85443478 6.67350567,5.85443478 C8.50975751,5.85443478 10.0038051,7.34556522 10.0038051,9.17843478 C10.0038051,11.0118261 8.50975751,12.5041739 6.67350567,12.5041739 M6.75739978,3.86347826 C3.785002,3.86347826 1.367596,6.27478261 1.367596,9.23808696 C1.367596,12.2003478 3.785002,14.6104348 6.75739978,14.6104348 C9.72875106,14.6104348 12.1459826,12.2003478 12.1459826,9.23808696 C12.1459826,6.27478261 9.72875106,3.86347826 6.75739978,3.86347826" id="Fill-5" fill="#FFFFFF"></path>
                <path d="M6.67001735,8.05947826 C6.0487475,8.05947826 5.54730145,8.55947826 5.54730145,9.1786087 C5.54730145,9.79513043 6.0487475,10.2982609 6.67001735,10.2982609 C7.28832214,10.2982609 7.79151235,9.79513043 7.79151235,9.1786087 C7.79151235,8.55947826 7.28832214,8.05947826 6.67001735,8.05947826" id="Fill-6" fill="#E06246"></path>
                <g id="Group-10">
                    <mask id="mask-2" fill="white">
                        <use xlink:href="#path-1"></use>
                    </mask>
                    <g id="Clip-8"></g>
                    <path d="M20.1999911,8.05947826 C19.5785468,8.05947826 19.0786705,8.55947826 19.0786705,9.1786087 C19.0786705,9.79513043 19.5785468,10.2982609 20.1999911,10.2982609 C20.819168,10.2982609 21.320614,9.79513043 21.320614,9.1786087 C21.320614,8.55947826 20.819168,8.05947826 20.1999911,8.05947826" id="Fill-7" fill="#04A57C" mask="url(#mask-2)"></path>
                    <path d="M17.8746768,2.94556522 C16.1819693,3.56869565 14.8344311,4.81147826 14.0795586,6.44556522 C13.7387497,7.18278261 13.5458456,7.96191304 13.4848,8.74782609 C13.234513,5.308 10.3876948,2.58086957 6.89257219,2.51078261 C8.82597375,1.68747826 11.0475106,1.23843478 13.4556725,1.23843478 C15.8790087,1.23843478 18.0668832,1.67530435 19.9992383,2.53773913 C19.2911092,2.55895652 18.5751315,2.68730435 17.8746768,2.94556522 M6.75739978,14.6104348 C3.785002,14.6104348 1.367596,12.2005217 1.367596,9.23826087 C1.367596,6.27495652 3.785002,3.86365217 6.75739978,3.86365217 C9.72875106,3.86365217 12.1459826,6.27495652 12.1459826,9.23826087 C12.1459826,12.2005217 9.72875106,14.6104348 6.75739978,14.6104348 M17.9570011,14.1426087 C16.6501019,13.542087 15.6566283,12.4697391 15.1590194,11.1248696 L15.1590194,11.124 C14.6598407,9.77686957 14.7165259,8.31791304 15.3179123,7.01426087 C15.9205197,5.71026087 16.99562,4.71826087 18.3466465,4.2213913 C21.134861,3.19513043 24.2408614,4.62191304 25.2697415,7.40104348 C26.2993192,10.1796522 24.8684102,13.2766957 22.0810679,14.3057391 C20.730739,14.8022609 19.2659933,14.7446957 17.9570011,14.1426087 M25.6332245,5.25147826 C25.9513593,3.90452174 26.9608792,2.55895652 26.9608792,2.55895652 L22.4557135,2.55652174 C19.9287742,0.927826087 16.8578314,0.0645217391 13.4556725,0.0645217391 C9.92775973,0.0645217391 6.7413535,0.949217391 4.2281931,2.58747826 L0,2.5906087 C0,2.5906087 0.997136374,3.92017391 1.321899,5.25826087 C0.497608899,6.3746087 0.00401156841,7.748 0.00401156841,9.23826087 C0.00401156841,12.9507826 3.03344338,15.9709565 6.75739978,15.9709565 C8.88475195,15.9709565 10.7830959,14.981913 12.0214496,13.444 L13.4579399,15.5892174 L14.9089068,13.4266087 C15.5603506,14.2535652 16.3998149,14.9231304 17.3857887,15.3766957 C19.0258225,16.1304348 20.8610278,16.2031304 22.5535608,15.5805217 C26.0469393,14.2909565 27.8392383,10.409913 26.5487341,6.92991304 C26.3204236,6.31373913 26.0075212,5.75356522 25.6332245,5.25147826" id="Fill-9" fill="#0D1111" mask="url(#mask-2)"></path>
                </g>
                <path d="M6.67350567,11.3589565 C5.466198,11.3589565 4.48388699,10.38 4.48388699,9.17843478 C4.48388699,7.97634783 5.466198,6.9986087 6.67350567,6.9986087 C7.87645295,6.9986087 8.85545006,7.97634783 8.85545006,9.17843478 C8.85545006,10.38 7.87645295,11.3589565 6.67350567,11.3589565 M6.67350567,5.85443478 C4.83289344,5.85443478 3.33588076,7.34556522 3.33588076,9.17843478 C3.33588076,11.0118261 4.83289344,12.5041739 6.67350567,12.5041739 C8.50975751,12.5041739 10.0038051,11.0118261 10.0038051,9.17843478 C10.0038051,7.34556522 8.50975751,5.85443478 6.67350567,5.85443478" id="Fill-11" fill="#0D1111"></path>
                <path d="M20.1999911,11.3589565 C18.9935555,11.3589565 18.0128142,10.38 18.0128142,9.17843478 C18.0128142,7.97634783 18.9935555,6.9986087 20.1999911,6.9986087 C21.4045081,6.9986087 22.3847261,7.97634783 22.3847261,9.17843478 C22.3847261,10.38 21.4045081,11.3589565 20.1999911,11.3589565 M20.1999911,5.85443478 C18.3609486,5.85443478 16.8644592,7.34556522 16.8644592,9.17843478 C16.8644592,11.0118261 18.3609486,12.5041739 20.1999911,12.5041739 C22.0376383,12.5041739 23.532558,11.0118261 23.532558,9.17843478 C23.532558,7.34556522 22.0376383,5.85443478 20.1999911,5.85443478" id="Fill-12" fill="#0D1111"></path>
            </g>
        </g>
    </g>
</svg>